<mxfile host="app.diagrams.net" modified="2023-05-17T06:12:46.173Z" agent="Mozilla/5.0 (Windows NT 10.0; Win64; x64) AppleWebKit/537.36 (KHTML, like Gecko) Chrome/113.0.0.0 Safari/537.36" etag="shuiqXznvmfAFXseXLp3" version="21.3.2" type="device">
  <diagram name="Page-1" id="AMG5mT7RFaIq-HXEYkwW">
    <mxGraphModel dx="794" dy="430" grid="1" gridSize="10" guides="1" tooltips="1" connect="1" arrows="1" fold="1" page="1" pageScale="1" pageWidth="827" pageHeight="1169" math="0" shadow="0">
      <root>
        <mxCell id="0" />
        <mxCell id="1" parent="0" />
        <mxCell id="514MyWsgDqZ5WKtEBquX-3" value="" style="edgeStyle=orthogonalEdgeStyle;rounded=0;orthogonalLoop=1;jettySize=auto;html=1;" parent="1" source="514MyWsgDqZ5WKtEBquX-1" target="514MyWsgDqZ5WKtEBquX-2" edge="1">
          <mxGeometry relative="1" as="geometry" />
        </mxCell>
        <mxCell id="514MyWsgDqZ5WKtEBquX-1" value="" style="strokeWidth=2;html=1;shape=mxgraph.flowchart.start_2;whiteSpace=wrap;" parent="1" vertex="1">
          <mxGeometry x="330" y="20" width="70" height="70" as="geometry" />
        </mxCell>
        <mxCell id="514MyWsgDqZ5WKtEBquX-5" value="" style="edgeStyle=orthogonalEdgeStyle;rounded=0;orthogonalLoop=1;jettySize=auto;html=1;" parent="1" source="514MyWsgDqZ5WKtEBquX-2" target="514MyWsgDqZ5WKtEBquX-4" edge="1">
          <mxGeometry relative="1" as="geometry" />
        </mxCell>
        <mxCell id="514MyWsgDqZ5WKtEBquX-2" value="Press button to see circle info" style="whiteSpace=wrap;html=1;strokeWidth=2;" parent="1" vertex="1">
          <mxGeometry x="305" y="130" width="120" height="60" as="geometry" />
        </mxCell>
        <mxCell id="514MyWsgDqZ5WKtEBquX-7" value="" style="edgeStyle=orthogonalEdgeStyle;rounded=0;orthogonalLoop=1;jettySize=auto;html=1;" parent="1" source="514MyWsgDqZ5WKtEBquX-4" target="514MyWsgDqZ5WKtEBquX-6" edge="1">
          <mxGeometry relative="1" as="geometry" />
        </mxCell>
        <mxCell id="YNi2umlObkcQ9FIrg8qZ-2" value="" style="edgeStyle=orthogonalEdgeStyle;rounded=0;orthogonalLoop=1;jettySize=auto;html=1;" edge="1" parent="1" source="514MyWsgDqZ5WKtEBquX-4" target="YNi2umlObkcQ9FIrg8qZ-1">
          <mxGeometry relative="1" as="geometry" />
        </mxCell>
        <mxCell id="514MyWsgDqZ5WKtEBquX-4" value="Is there a circle on &lt;br&gt;canvas?" style="rhombus;whiteSpace=wrap;html=1;strokeWidth=2;" parent="1" vertex="1">
          <mxGeometry x="290" y="260" width="150" height="80" as="geometry" />
        </mxCell>
        <mxCell id="514MyWsgDqZ5WKtEBquX-8" style="edgeStyle=orthogonalEdgeStyle;rounded=0;orthogonalLoop=1;jettySize=auto;html=1;entryX=0;entryY=0.5;entryDx=0;entryDy=0;entryPerimeter=0;" parent="1" source="514MyWsgDqZ5WKtEBquX-6" target="514MyWsgDqZ5WKtEBquX-1" edge="1">
          <mxGeometry relative="1" as="geometry">
            <Array as="points">
              <mxPoint x="140" y="55" />
            </Array>
          </mxGeometry>
        </mxCell>
        <mxCell id="514MyWsgDqZ5WKtEBquX-6" value="Display error" style="whiteSpace=wrap;html=1;strokeWidth=2;" parent="1" vertex="1">
          <mxGeometry x="80" y="180" width="120" height="60" as="geometry" />
        </mxCell>
        <mxCell id="514MyWsgDqZ5WKtEBquX-9" value="NO" style="text;html=1;strokeColor=none;fillColor=none;align=center;verticalAlign=middle;whiteSpace=wrap;rounded=0;" parent="1" vertex="1">
          <mxGeometry x="230" y="270" width="60" height="30" as="geometry" />
        </mxCell>
        <mxCell id="514MyWsgDqZ5WKtEBquX-12" style="edgeStyle=orthogonalEdgeStyle;rounded=0;orthogonalLoop=1;jettySize=auto;html=1;" parent="1" source="514MyWsgDqZ5WKtEBquX-10" target="514MyWsgDqZ5WKtEBquX-13" edge="1">
          <mxGeometry relative="1" as="geometry">
            <mxPoint x="595" y="410" as="targetPoint" />
          </mxGeometry>
        </mxCell>
        <mxCell id="514MyWsgDqZ5WKtEBquX-10" value="Display perimeter and area" style="whiteSpace=wrap;html=1;strokeWidth=2;" parent="1" vertex="1">
          <mxGeometry x="535" y="390" width="120" height="60" as="geometry" />
        </mxCell>
        <mxCell id="514MyWsgDqZ5WKtEBquX-13" value="" style="ellipse;html=1;shape=endState;fillColor=#000000;strokeColor=#ff0000;" parent="1" vertex="1">
          <mxGeometry x="560" y="500" width="70" height="65" as="geometry" />
        </mxCell>
        <mxCell id="YNi2umlObkcQ9FIrg8qZ-3" style="edgeStyle=orthogonalEdgeStyle;rounded=0;orthogonalLoop=1;jettySize=auto;html=1;entryX=0.5;entryY=0;entryDx=0;entryDy=0;" edge="1" parent="1" source="YNi2umlObkcQ9FIrg8qZ-1" target="514MyWsgDqZ5WKtEBquX-10">
          <mxGeometry relative="1" as="geometry" />
        </mxCell>
        <mxCell id="YNi2umlObkcQ9FIrg8qZ-1" value="Call area and perimeter methods from the model" style="whiteSpace=wrap;html=1;strokeWidth=2;" vertex="1" parent="1">
          <mxGeometry x="535" y="270" width="120" height="60" as="geometry" />
        </mxCell>
        <mxCell id="YNi2umlObkcQ9FIrg8qZ-4" value="YES" style="text;html=1;strokeColor=none;fillColor=none;align=center;verticalAlign=middle;whiteSpace=wrap;rounded=0;" vertex="1" parent="1">
          <mxGeometry x="420" y="270" width="60" height="30" as="geometry" />
        </mxCell>
      </root>
    </mxGraphModel>
  </diagram>
</mxfile>
